<svg width="58" height="39" viewBox="0 0 58 39" fill="none" xmlns="http://www.w3.org/2000/svg">
  <g id="credit-card">
    <rect id="BASE" x="0.713867" y="0.226074" width="56.4188" height="38.6872" rx="3.22393" />
    <path id="polygon9" d="M24.8512 26.1511H21.6611L23.6564 13.8137H26.8463L24.8512 26.1511Z" fill="#00579F"/>
    <path id="path11" d="M36.415 14.1153C35.7858 13.8657 34.7878 13.5901 33.5538 13.5901C30.4035 13.5901 28.1851 15.27 28.1715 17.6717C28.1453 19.4437 29.7598 20.4279 30.9673 21.0188C32.2015 21.6225 32.621 22.0166 32.621 22.5547C32.6084 23.3813 31.6237 23.7622 30.7053 23.7622C29.4317 23.7622 28.7492 23.5658 27.7122 23.106L27.2921 22.9089L26.8457 25.6783C27.5939 26.0192 28.9723 26.3217 30.4035 26.3349C33.7507 26.3349 35.9298 24.681 35.9557 22.1216C35.9684 20.7172 35.1159 19.641 33.278 18.7616C32.1622 18.1971 31.4789 17.8165 31.4789 17.2389C31.492 16.7138 32.0569 16.176 33.3163 16.176C34.3534 16.1497 35.1154 16.399 35.6926 16.6484L35.9811 16.7794L36.415 14.1153Z" fill="#00579F"/>
    <path id="path13" d="M40.6562 21.7804C40.9189 21.0716 41.9298 18.3285 41.9298 18.3285C41.9166 18.3548 42.192 17.6066 42.3496 17.1473L42.5725 18.2104C42.5725 18.2104 43.1766 21.1635 43.3078 21.7804C42.8092 21.7804 41.2863 21.7804 40.6562 21.7804ZM44.5939 13.8137H42.1264C41.3655 13.8137 40.7874 14.0367 40.4591 14.8374L35.7207 26.1509H39.0679C39.0679 26.1509 39.619 24.6282 39.7374 24.3002C40.1046 24.3002 43.3608 24.3002 43.8332 24.3002C43.9248 24.7334 44.2138 26.1509 44.2138 26.1509H47.1675L44.5939 13.8137Z" fill="#00579F"/>
    <path id="path15" d="M18.997 13.8137L15.8729 22.2266L15.5315 20.5204C14.954 18.5516 13.1425 16.4126 11.1211 15.349L13.9827 26.138H17.3561L22.3703 13.8137H18.997Z" fill="#00579F"/>
    <path id="path17" d="M12.9721 13.8137H7.83962L7.78711 14.063C11.7908 15.0868 14.4423 17.5547 15.5317 20.5209L14.416 14.8508C14.2323 14.0628 13.6678 13.8397 12.9721 13.8137Z" fill="#FAA61A"/>
  </g>
</svg>
