<svg width="57" height="39" viewBox="0 0 57 39" fill="none" xmlns="http://www.w3.org/2000/svg">
<g id="credit-card">
<rect id="BASE" x="0.25293" y="0.226074" width="56.4188" height="38.6872" rx="3.22393"/>
<path id="Stripe" fill-rule="evenodd" clip-rule="evenodd" d="M30.5671 13.3505L27.7011 13.9656V11.642L30.5671 11.0383V13.3505ZM18.9205 12.3597L16.1344 12.952L16.123 22.0755C16.123 23.7613 17.3904 25.0028 19.0803 25.0028C20.0166 25.0028 20.7017 24.8319 21.0785 24.6269V22.3147C20.7131 22.4628 18.909 22.9867 18.909 21.301V17.2574H21.0785V14.8313H18.909L18.9205 12.3597ZM12.1728 17.1094C11.5676 17.1094 11.2023 17.2802 11.2023 17.7245C11.2023 18.2095 11.8311 18.4228 12.6112 18.6875C13.883 19.119 15.5569 19.687 15.564 21.7908C15.564 23.8296 13.9312 25.0028 11.5562 25.0028C10.5743 25.0028 9.50096 24.8092 8.43908 24.3536V21.6427C9.3982 22.1666 10.6085 22.5539 11.5562 22.5539C12.1956 22.5539 12.6524 22.383 12.6524 21.8591C12.6524 21.3219 11.9707 21.0763 11.1478 20.7798C9.89447 20.3283 8.31348 19.7588 8.31348 17.8611C8.31348 15.8451 9.85493 14.6377 12.1728 14.6377C13.1205 14.6377 14.0568 14.7858 15.0045 15.1617V17.8384C14.1367 17.3714 13.0406 17.1094 12.1728 17.1094ZM24.6303 15.6741L24.4477 14.8312H21.9813V24.7976H24.8359V18.0432C25.5095 17.1662 26.6514 17.3257 27.0053 17.4509V14.8312C26.6399 14.6945 25.304 14.4439 24.6303 15.6741ZM27.7011 14.8313H30.5671V24.7977H27.7011V14.8313ZM49.4182 19.8544C49.4182 16.9385 48.0023 14.6377 45.2962 14.6377C42.5787 14.6377 40.9345 16.9385 40.9345 19.8316C40.9345 23.2601 42.8756 24.9914 45.6616 24.9914C47.0204 24.9914 48.048 24.6839 48.8244 24.251V21.973C48.048 22.3603 47.1574 22.5995 46.027 22.5995C44.9194 22.5995 43.9375 22.2122 43.8119 20.8681H49.3953C49.3953 20.8054 49.3994 20.6627 49.4042 20.4984C49.4106 20.2752 49.4182 20.0119 49.4182 19.8544ZM43.7777 18.7725C43.7777 17.4854 44.5656 16.95 45.2849 16.95C45.9814 16.95 46.7236 17.4854 46.7236 18.7725H43.7777ZM34.2892 15.5261C34.6888 15.1617 35.4081 14.6377 36.5271 14.6377C38.5253 14.6377 40.4093 16.4374 40.4207 19.7405C40.4207 23.3512 38.5595 24.9914 36.5157 24.9914C35.5109 24.9914 34.9057 24.57 34.4947 24.2738L34.4833 27.4973L31.6287 28.1009V14.8199H34.1407L34.2892 15.5261ZM34.495 21.9502C34.7691 22.2463 35.1687 22.4855 35.8424 22.4855C36.8928 22.4855 37.6007 21.3465 37.6007 19.8202C37.6007 18.3281 36.8814 17.1663 35.8424 17.1663C35.1915 17.1663 34.7805 17.3941 34.4836 17.7244L34.495 21.9502Z" fill="#6461FC"/>
</g>
</svg>
