<svg width="42" height="18" viewBox="0 0 42 18" fill="none" xmlns="http://www.w3.org/2000/svg">
<g id="GooglePay">
<g id="Pay">
<path id="Union" fill-rule="evenodd" clip-rule="evenodd" d="M19.5144 13.6277V8.75804H22.0277C23.0576 8.75804 23.9269 8.41294 24.6356 7.73234L24.8056 7.55979C26.1001 6.15065 26.0151 3.95547 24.6356 2.65177C23.9458 1.96158 23.0009 1.58773 22.0277 1.6069H17.9932V13.6277H19.5144ZM19.5144 7.28194V3.08328H22.0659C22.614 3.08328 23.1338 3.29417 23.5213 3.67761C24.3434 4.48283 24.3623 5.82487 23.5685 6.65885C23.181 7.07105 22.6329 7.30111 22.0659 7.28194H19.5144ZM31.902 6.04543C31.25 5.44151 30.3618 5.13476 29.2374 5.13476C27.7918 5.13476 26.7052 5.67157 25.9871 6.73562L27.3288 7.58877C27.8201 6.86023 28.491 6.49597 29.3414 6.49597C29.8799 6.49597 30.3996 6.69727 30.8059 7.06154C31.2028 7.40664 31.4295 7.90511 31.4295 8.43233V8.78702C30.8437 8.46109 30.1067 8.28854 29.1996 8.28854C28.1414 8.28854 27.291 8.53778 26.658 9.04584C26.0249 9.55389 25.7037 10.2249 25.7037 11.0781C25.6848 11.8545 26.0155 12.5926 26.6013 13.0911C27.1965 13.6279 27.9524 13.8963 28.8406 13.8963C29.8894 13.8963 30.7209 13.4266 31.3539 12.4872H31.4201V13.6279H32.8752V8.55695C32.8752 7.49291 32.5539 6.64934 31.902 6.04543ZM27.7732 12.1134C27.4613 11.8833 27.2723 11.5095 27.2723 11.1069C27.2723 10.6563 27.4803 10.2825 27.8866 9.98529C28.3024 9.68813 28.8222 9.53475 29.4364 9.53475C30.2869 9.52517 30.9484 9.71689 31.421 10.1003C31.421 10.7522 31.1658 11.3177 30.6649 11.797C30.2113 12.2572 29.5971 12.516 28.9545 12.516C28.5292 12.5256 28.1134 12.3818 27.7732 12.1134ZM36.1436 17.2417L41.227 5.40304H39.5735L37.2208 11.308H37.1924L34.783 5.40304H33.1295L36.4649 13.1006L34.5752 17.2417H36.1436Z" fill="#3C4043"/>
</g>
<g id="G">
<path id="Blue" d="M14.2634 7.70351C14.2634 7.23379 14.2256 6.76408 14.15 6.30396H7.73438V8.95927H11.4099C11.2587 9.81242 10.7674 10.5793 10.0493 11.0586V12.7841H12.2414C13.5264 11.5858 14.2634 9.81242 14.2634 7.70351Z" fill="#4285F4"/>
<path id="Green" d="M7.73465 14.4521C9.56768 14.4521 11.1173 13.8386 12.2416 12.7841L10.0496 11.0586C9.4354 11.4804 8.65117 11.7201 7.73465 11.7201C5.95831 11.7201 4.45597 10.5027 3.9174 8.87305H1.65918V10.656C2.81191 12.9854 5.16462 14.4521 7.73465 14.4521Z" fill="#34A853"/>
<path id="Yellow" d="M3.91732 8.87299C3.63381 8.01984 3.63381 7.09 3.91732 6.22726V4.45386H1.65873C0.68537 6.39981 0.68537 8.70044 1.65873 10.6464L3.91732 8.87299Z" fill="#FBBC04"/>
<path id="Red" d="M7.73465 3.38037C8.70786 3.3612 9.64327 3.73505 10.3425 4.41565L12.2889 2.44094C11.0511 1.27145 9.42595 0.629194 7.73465 0.648366C5.16462 0.648366 2.81191 2.12461 1.65918 4.454L3.9174 6.23699C4.45597 4.59779 5.95831 3.38037 7.73465 3.38037Z" fill="#EA4335"/>
</g>
</g>
</svg>
