<svg width="38" height="23" viewBox="0 0 38 23" fill="none" xmlns="http://www.w3.org/2000/svg">
<g id="Mastercard">
<path id="Left" fill-rule="evenodd" clip-rule="evenodd" d="M18.9414 19.8823C17.0206 21.5399 14.529 22.5406 11.8063 22.5406C5.73137 22.5406 0.806641 17.5587 0.806641 11.4133C0.806641 5.26778 5.73137 0.285889 11.8063 0.285889C14.529 0.285889 17.0206 1.28658 18.9414 2.94423C20.8622 1.28659 23.3539 0.285902 26.0765 0.285902C32.1515 0.285902 37.0762 5.2678 37.0762 11.4133C37.0762 17.5588 32.1515 22.5406 26.0765 22.5406C23.3539 22.5406 20.8622 21.54 18.9414 19.8823Z" fill="#ED0006"/>
<path id="Right" fill-rule="evenodd" clip-rule="evenodd" d="M18.9414 19.8824C21.3064 17.8414 22.8061 14.8045 22.8061 11.4133C22.8061 8.02201 21.3064 4.98509 18.9414 2.94412C20.8622 1.28654 23.3538 0.285889 26.0764 0.285889C32.1514 0.285889 37.0761 5.26778 37.0761 11.4133C37.0761 17.5587 32.1514 22.5406 26.0764 22.5406C23.3538 22.5406 20.8622 21.54 18.9414 19.8824Z" fill="#F9A000"/>
<path id="Middle" fill-rule="evenodd" clip-rule="evenodd" d="M18.9409 19.8824C21.3059 17.8414 22.8056 14.8045 22.8056 11.4132C22.8056 8.02198 21.3059 4.98506 18.9409 2.94409C16.5758 4.98506 15.0762 8.02198 15.0762 11.4132C15.0762 14.8045 16.5758 17.8414 18.9409 19.8824Z" fill="#FF5E00"/>
</g>
</svg>
