<svg width="18" height="21" viewBox="0 0 18 21" fill="none" xmlns="http://www.w3.org/2000/svg">
<g id="PayPal">
<path id="Vector" d="M5.3504 19.8691L5.69621 17.6728L4.92598 17.6549H1.24805L3.80405 1.44794C3.81185 1.39901 3.83773 1.35339 3.87541 1.321C3.9131 1.2886 3.96144 1.27075 4.01168 1.27075H10.2133C12.2721 1.27075 13.6929 1.69918 14.4347 2.54479C14.7825 2.9415 15.004 3.35603 15.1111 3.81223C15.2234 4.29092 15.2255 4.86281 15.1157 5.56034L15.1077 5.61125V6.05818L15.4556 6.25521C15.7485 6.41057 15.9811 6.58843 16.1596 6.79207C16.4573 7.13124 16.6497 7.56231 16.731 8.07338C16.8149 8.59901 16.7871 9.22445 16.6497 9.93256C16.491 10.7471 16.2344 11.4565 15.888 12.037C15.5692 12.5719 15.1633 13.0154 14.6814 13.3593C14.2212 13.6859 13.6744 13.9339 13.0563 14.0926C12.4571 14.2485 11.7743 14.3273 11.0252 14.3273H10.5425C10.1975 14.3273 9.86212 14.4516 9.5991 14.6745C9.33531 14.9019 9.1606 15.2125 9.10712 15.5524L9.07077 15.7501L8.45985 19.6211L8.43206 19.7632C8.42482 19.8083 8.41226 19.8308 8.3938 19.846C8.37725 19.8597 8.35345 19.8691 8.33023 19.8691H5.3504Z" fill="#253B80"/>
<path id="Vector_2" d="M15.7836 5.66357C15.7651 5.78192 15.744 5.9029 15.7202 6.0272C14.9022 10.2262 12.1043 11.6768 8.5307 11.6768H6.71124C6.27426 11.6768 5.90599 11.9941 5.83786 12.4252L4.90624 18.3334L4.64246 20.008C4.59811 20.291 4.81641 20.5462 5.10189 20.5462H8.32915C8.71131 20.5462 9.03581 20.2685 9.09595 19.8917L9.12773 19.7276L9.73542 15.8718L9.77444 15.6603C9.83382 15.2822 10.1591 15.0045 10.5412 15.0045H11.0239C14.1505 15.0045 16.5982 13.735 17.3136 10.0616C17.6124 8.52703 17.4577 7.24572 16.6669 6.34456C16.4276 6.07282 16.1307 5.84737 15.7836 5.66357Z" fill="#179BD7"/>
<path id="Vector_3" d="M14.9262 5.32138C14.8013 5.28501 14.6723 5.25195 14.54 5.22221C14.4072 5.19312 14.2709 5.16734 14.1308 5.14486C13.6402 5.06552 13.1027 5.02783 12.5268 5.02783H7.66605C7.54634 5.02783 7.43272 5.05493 7.3309 5.10386C7.1067 5.21162 6.94017 5.42387 6.89983 5.68369L5.86563 12.2331L5.83594 12.4242C5.90407 11.9931 6.27234 11.6757 6.70932 11.6757H8.52877C12.1024 11.6757 14.9005 10.2245 15.7183 6.02617C15.7427 5.90188 15.7632 5.78089 15.7817 5.66255C15.5748 5.55279 15.3506 5.45891 15.1093 5.3789C15.0499 5.35907 14.9884 5.3399 14.9262 5.32138Z" fill="#222D65"/>
<path id="Vector_4" d="M6.90315 5.68424C6.9435 5.42439 7.11022 5.21217 7.33422 5.10505C7.4368 5.05612 7.54985 5.02902 7.66938 5.02902H12.5303C13.1062 5.02902 13.6437 5.0667 14.1342 5.14605C14.2744 5.16853 14.4107 5.19431 14.5435 5.22339C14.6758 5.25316 14.8047 5.28622 14.9297 5.32257C14.9917 5.34109 15.0532 5.36025 15.1134 5.37944C15.3547 5.45943 15.5789 5.55398 15.7858 5.66307C16.0292 4.11134 15.7839 3.05481 14.9449 2.09811C14.02 1.0449 12.3505 0.593994 10.2143 0.593994H4.01257C3.57617 0.593994 3.20409 0.911334 3.13653 1.34307L0.553503 17.7166C0.502497 18.0405 0.752388 18.3329 1.07898 18.3329H4.90783L5.86914 12.2336L6.90315 5.68424Z" fill="#253B80"/>
</g>
</svg>
