<svg width="43" height="42" viewBox="0 0 43 42" fill="none" xmlns="http://www.w3.org/2000/svg">
<g id="mdi:cart" clip-path="url(#clip0_269_3198)">
<path id="Vector" d="M28.5 31C26.5575 31 25 32.5575 25 34.5C25 35.4283 25.3687 36.3185 26.0251 36.9749C26.6815 37.6312 27.5717 38 28.5 38C29.4283 38 30.3185 37.6312 30.9749 36.9749C31.6313 36.3185 32 35.4283 32 34.5C32 33.5717 31.6313 32.6815 30.9749 32.0251C30.3185 31.3687 29.4283 31 28.5 31ZM0.5 3V6.5H4L10.3 19.7825L7.92 24.07C7.6575 24.56 7.5 25.1375 7.5 25.75C7.5 26.6783 7.86875 27.5685 8.52513 28.2249C9.1815 28.8813 10.0717 29.25 11 29.25H32V25.75H11.735C11.619 25.75 11.5077 25.7039 11.4256 25.6219C11.3436 25.5398 11.2975 25.4285 11.2975 25.3125C11.2975 25.225 11.315 25.155 11.35 25.1025L12.925 22.25H25.9625C27.275 22.25 28.43 21.515 29.025 20.4475L35.29 9.125C35.4125 8.845 35.5 8.5475 35.5 8.25C35.5 7.78587 35.3156 7.34075 34.9874 7.01256C34.6592 6.68437 34.2141 6.5 33.75 6.5H7.8675L6.2225 3M11 31C9.0575 31 7.5 32.5575 7.5 34.5C7.5 35.4283 7.86875 36.3185 8.52513 36.9749C9.1815 37.6312 10.0717 38 11 38C11.9283 38 12.8185 37.6312 13.4749 36.9749C14.1313 36.3185 14.5 35.4283 14.5 34.5C14.5 33.5717 14.1313 32.6815 13.4749 32.0251C12.8185 31.3687 11.9283 31 11 31Z" fill="#3F1A66"/>
</g>
<defs>
<clipPath id="clip0_269_3198">
<rect width="42" height="42" fill="white" transform="translate(0.5)"/>
</clipPath>
</defs>
</svg>
