<svg width="23" height="23" viewBox="0 0 23 23" fill="none" xmlns="http://www.w3.org/2000/svg">
<g id="f7:creditcard-fill" clip-path="url(#clip0_269_3213)">
<path id="Vector" d="M0.932447 7.49156H21.6736V6.61304C21.6736 4.6678 20.6822 3.6853 18.708 3.6853H3.89806C1.92421 3.6853 0.932044 4.6678 0.932044 6.61344L0.932447 7.49156ZM0.932447 16.6536C0.932447 18.5992 1.92381 19.572 3.89806 19.572H18.708C20.6818 19.572 21.674 18.5992 21.674 16.6536V9.63587H0.931641L0.932447 16.6536ZM4.08706 14.3489V12.6015C4.08706 12.0728 4.4554 11.6948 5.01273 11.6948H7.32671C7.88405 11.6948 8.25238 12.0728 8.25238 12.6015V14.3489C8.25238 14.8873 7.88405 15.2556 7.32671 15.2556H5.01233C4.45499 15.2556 4.08706 14.8873 4.08706 14.3489Z" fill="#6A4490"/>
</g>
<defs>
<clipPath id="clip0_269_3213">
<rect width="22.5675" height="22.5675" fill="white" transform="translate(0.0195312 0.344971)"/>
</clipPath>
</defs>
</svg>
