<svg width="50" height="49" viewBox="0 0 50 49" fill="none" xmlns="http://www.w3.org/2000/svg">
<g id="hugeicons:message-done-02">
<g id="Group">
<path id="Vector" d="M23.9793 6.13306C22.8291 6.14939 21.6926 6.19499 20.5697 6.26985C12.0273 6.83743 5.22452 13.7383 4.6651 22.399C4.55695 24.1123 4.55695 25.8307 4.6651 27.544C4.86927 30.6984 6.26372 33.62 7.90727 36.0863C8.86072 37.8116 8.23189 39.9676 7.2376 41.85C6.52302 43.2077 6.16368 43.8855 6.45156 44.3755C6.73739 44.8655 7.38052 44.8818 8.66472 44.9125C11.2066 44.9737 12.9196 44.2551 14.2793 43.2526C15.049 42.683 15.4349 42.3992 15.7003 42.3665C15.9657 42.3338 16.4904 42.5503 17.5358 42.979C18.4749 43.3669 19.5672 43.6058 20.5676 43.6732C23.477 43.8651 26.5171 43.8671 29.4326 43.6732C37.9728 43.1056 44.7757 36.2048 45.3351 27.544C45.4433 25.8494 45.4433 24.0936 45.3351 22.399C45.2233 20.6737 44.8573 18.9744 44.2489 17.3561" stroke="white" stroke-width="1.5" stroke-linecap="round" stroke-linejoin="round"/>
<path id="Vector_2" d="M29.0835 12.2499C29.0835 12.2499 31.1252 12.2499 33.1668 16.3333C33.1668 16.3333 39.6532 6.12492 45.4168 4.08325M24.99 25.5208H25.0104M33.1485 25.5208H33.1668M16.8335 25.5208H16.8519" stroke="white" stroke-width="1.5" stroke-linecap="round" stroke-linejoin="round"/>
</g>
</g>
</svg>
