<svg width="288" height="165" viewBox="0 0 288 165" fill="none" xmlns="http://www.w3.org/2000/svg">
<path d="M287.341 63.8965V54.2971C287.341 52.4666 286.531 50.7111 285.089 49.4167C283.648 48.1224 281.693 47.3952 279.654 47.3952H252.523C251.513 47.3952 250.514 47.2167 249.581 46.8698C248.648 46.523 247.801 46.0146 247.087 45.3737C246.373 44.7328 245.807 43.9719 245.421 43.1345C245.035 42.2971 244.836 41.3996 244.836 40.4933V30.8939C244.836 29.9875 245.035 29.09 245.421 28.2527C245.807 27.4153 246.373 26.6544 247.087 26.0135C247.801 25.3726 248.648 24.8642 249.581 24.5174C250.514 24.1705 251.513 23.992 252.523 23.992H253.379C255.418 23.992 257.373 23.2648 258.814 21.9705C260.256 20.6761 261.066 18.9206 261.066 17.0901V7.49073C261.066 5.66023 260.256 3.9047 258.814 2.61034C257.373 1.31597 255.418 0.588806 253.379 0.588806H52.443C50.4043 0.588806 48.4492 1.31597 47.0076 2.61034C45.5661 3.9047 44.7563 5.66023 44.7563 7.49073V17.0901C44.7563 18.9206 45.5661 20.6761 47.0076 21.9705C48.4492 23.2648 50.4043 23.992 52.443 23.992C54.4816 23.992 56.4367 24.7192 57.8783 26.0135C59.3198 27.3079 60.1296 29.0634 60.1296 30.8939V40.4933C60.1296 42.3238 59.3198 44.0793 57.8783 45.3737C56.4367 46.668 54.4816 47.3952 52.443 47.3952H22.7178C20.6792 47.3952 18.7241 48.1224 17.2825 49.4167C15.841 50.7111 15.0311 52.4666 15.0311 54.2971V63.8965C15.0311 65.727 15.841 67.4825 17.2825 68.7768C18.7241 70.0712 20.6792 70.7984 22.7178 70.7984H34.3815C35.391 70.7984 36.3905 70.9769 37.3231 71.3238C38.2557 71.6706 39.1031 72.179 39.8168 72.8199C40.5306 73.4608 41.0968 74.2217 41.4831 75.0591C41.8694 75.8964 42.0682 76.7939 42.0682 77.7003V87.2997C42.0682 88.2061 41.8694 89.1036 41.4831 89.941C41.0968 90.7783 40.5306 91.5392 39.8168 92.1801C39.1031 92.821 38.2557 93.3294 37.3231 93.6763C36.3905 94.0231 35.391 94.2016 34.3815 94.2016H34.3533C32.3147 94.2016 30.3596 94.9288 28.918 96.2232C27.4765 97.5175 26.6667 99.273 26.6667 101.104V110.703C26.6667 111.609 26.8655 112.507 27.2518 113.344C27.6381 114.181 28.2043 114.942 28.918 115.583C29.6318 116.224 30.4792 116.733 31.4118 117.079C32.3444 117.426 33.3439 117.605 34.3534 117.605H36.0408C38.0795 117.605 40.0346 118.332 41.4762 119.626C42.9177 120.921 43.7275 122.676 43.7275 124.507V134.106C43.7275 135.937 42.9177 137.692 41.4762 138.986C40.0346 140.281 38.0795 141.008 36.0408 141.008H8.34612C6.30748 141.008 4.35234 141.735 2.91081 143.03C1.46927 144.324 0.659424 146.079 0.659424 147.91V157.509C0.659424 159.34 1.46927 161.095 2.91081 162.39C4.35234 163.684 6.30748 164.411 8.34612 164.411H257.506C259.545 164.411 261.5 163.684 262.941 162.39C264.383 161.095 265.193 159.34 265.193 157.509V147.91C265.193 146.079 264.383 144.324 262.941 143.03C261.5 141.735 259.545 141.008 257.506 141.008H250.841C248.803 141.008 246.847 140.281 245.406 138.986C243.964 137.692 243.154 135.937 243.154 134.106V124.507C243.154 122.676 243.964 120.921 245.406 119.626C246.847 118.332 248.803 117.605 250.841 117.605H266.556C267.565 117.605 268.565 117.426 269.498 117.079C270.43 116.733 271.278 116.224 271.991 115.583C272.705 114.942 273.271 114.181 273.658 113.344C274.044 112.507 274.243 111.609 274.243 110.703V101.104C274.243 99.273 273.433 97.5175 271.991 96.2231C270.55 94.9288 268.595 94.2016 266.556 94.2016H261.789C260.779 94.2016 259.78 94.0231 258.847 93.6763C257.915 93.3294 257.067 92.821 256.354 92.1801C255.64 91.5392 255.074 90.7783 254.687 89.941C254.301 89.1036 254.102 88.2061 254.102 87.2997V77.7003C254.102 76.7939 254.301 75.8964 254.687 75.0591C255.074 74.2217 255.64 73.4608 256.354 72.8199C257.067 72.179 257.915 71.6706 258.847 71.3238C259.78 70.9769 260.779 70.7984 261.789 70.7984H279.654C281.693 70.7984 283.648 70.0712 285.089 68.7768C286.531 67.4825 287.341 65.727 287.341 63.8965Z" fill="#E2E2E2"/>
<path d="M174.796 69.7283H80.8589V146.476H174.796V69.7283Z" fill="#2E1065"/>
<path d="M224.726 69.7283H174.796V146.476H224.726V69.7283Z" fill="#8976AC"/>
<path d="M224.726 69.9184H174.796L191.898 48.9723C192.062 48.7717 192.276 48.6086 192.523 48.4962C192.77 48.3838 193.043 48.3252 193.32 48.3252H238.878C239.204 48.3252 239.523 48.4063 239.801 48.5594C240.079 48.7125 240.304 48.9317 240.451 49.1926C240.598 49.4536 240.662 49.746 240.635 50.0376C240.609 50.3292 240.493 50.6084 240.3 50.8443L224.726 69.9184Z" fill="#2E1065"/>
<path d="M81.0913 69.9184H131.022L113.919 48.9723C113.755 48.7717 113.541 48.6086 113.294 48.4962C113.047 48.3838 112.774 48.3252 112.497 48.3252H66.9392C66.6134 48.3252 66.294 48.4063 66.0164 48.5594C65.7388 48.7125 65.5139 48.9317 65.3666 49.1926C65.2193 49.4536 65.1554 49.746 65.182 50.0376C65.2086 50.3292 65.3247 50.6084 65.5173 50.8443L81.0913 69.9184Z" fill="#8976AC"/>
<path d="M252.895 97.8863L224.726 69.9184V100.503H251.56C251.898 100.503 252.229 100.416 252.513 100.253C252.797 100.089 253.023 99.8552 253.163 99.5796C253.304 99.3039 253.353 98.9978 253.306 98.6977C253.258 98.3975 253.116 98.1159 252.895 97.8863Z" fill="#2E1065"/>
<path d="M163.245 28.5651H98.0972V69.9182H163.245V28.5651Z" fill="#350E89"/>
<path d="M128.767 72.4713H110.843C110.497 72.4713 110.157 72.3895 109.858 72.2342C109.558 72.0788 109.309 71.8554 109.136 71.5864C108.963 71.3173 108.872 71.0121 108.872 70.7014C108.872 70.3908 108.963 70.0856 109.136 69.8165L118.098 55.8791L127.06 41.9416C127.233 41.6726 127.482 41.4492 127.781 41.2938C128.081 41.1385 128.421 41.0567 128.767 41.0567C129.113 41.0567 129.453 41.1385 129.752 41.2938C130.052 41.4492 130.301 41.6726 130.474 41.9416L139.436 55.8791L148.397 69.8165C148.57 70.0856 148.661 70.3908 148.661 70.7014C148.661 71.0121 148.57 71.3173 148.397 71.5864C148.224 71.8554 147.975 72.0788 147.676 72.2342C147.376 72.3895 147.036 72.4713 146.69 72.4713H128.767Z" fill="#FDFDFD"/>
<path d="M129.753 49.772C129.753 49.283 129.312 48.8865 128.767 48.8865C128.222 48.8865 127.781 49.283 127.781 49.772V62.9706C127.781 63.4597 128.222 63.8561 128.767 63.8561C129.312 63.8561 129.753 63.4597 129.753 62.9706V49.772Z" fill="#2E1065"/>
<path d="M131.114 67.5296C131.243 66.3655 130.296 65.3283 128.999 65.2131C127.703 65.0978 126.548 65.9481 126.419 67.1122C126.291 68.2763 127.238 69.3135 128.535 69.4288C129.831 69.544 130.986 68.6938 131.114 67.5296Z" fill="#2E1065"/>
<path d="M144.392 100.503H55.1122C54.7745 100.503 54.444 100.416 54.1598 100.253C53.8757 100.089 53.6499 99.8552 53.5092 99.5796C53.3686 99.3039 53.3192 98.9978 53.3667 98.6977C53.4142 98.3975 53.5567 98.1159 53.7772 97.8863L80.6474 69.9184H174.584L145.727 99.9544C145.561 100.127 145.357 100.265 145.126 100.36C144.896 100.454 144.645 100.503 144.392 100.503Z" fill="#A289CF"/>
<path d="M231.735 125.947C233.962 125.947 233.962 127.003 236.189 127.003C238.416 127.003 238.416 125.947 240.642 125.947C242.87 125.947 242.87 127.003 245.098 127.003C247.326 127.003 247.326 125.947 249.554 125.947M231.735 130.559C233.962 130.559 233.962 131.614 236.189 131.614C238.416 131.614 238.416 130.559 240.642 130.559C242.87 130.559 242.87 131.614 245.098 131.614C247.326 131.614 247.326 130.559 249.554 130.559M231.735 135.17C233.962 135.17 233.962 136.226 236.189 136.226C238.416 136.226 238.416 135.17 240.642 135.17C242.87 135.17 242.87 136.226 245.098 136.226C247.326 136.226 247.326 135.17 249.554 135.17M18.3417 101.559C20.5688 101.559 20.5688 102.614 22.796 102.614C25.0224 102.614 25.0224 101.559 27.2489 101.559C29.4769 101.559 29.4769 102.614 31.7049 102.614C33.9329 102.614 33.9329 101.559 36.1608 101.559M18.3417 106.17C20.5688 106.17 20.5688 107.226 22.796 107.226C25.0224 107.226 25.0224 106.17 27.2489 106.17C29.4769 106.17 29.4769 107.226 31.7049 107.226C33.9329 107.226 33.9329 106.17 36.1608 106.17M18.3417 110.782C20.5688 110.782 20.5688 111.837 22.796 111.837C25.0224 111.837 25.0224 110.782 27.2489 110.782C29.4769 110.782 29.4769 111.837 31.7049 111.837C33.9329 111.837 33.9329 110.782 36.1608 110.782M117.498 11.0205C119.725 11.0205 119.725 12.0759 121.953 12.0759C124.179 12.0759 124.179 11.0205 126.405 11.0205C128.633 11.0205 128.633 12.0759 130.861 12.0759C133.089 12.0759 133.089 11.0205 135.317 11.0205M117.498 15.6321C119.725 15.6321 119.725 16.6875 121.953 16.6875C124.179 16.6875 124.179 15.6321 126.405 15.6321C128.633 15.6321 128.633 16.6875 130.861 16.6875C133.089 16.6875 133.089 15.6321 135.317 15.6321M117.498 20.2437C119.725 20.2437 119.725 21.2991 121.953 21.2991C124.179 21.2991 124.179 20.2437 126.405 20.2437C128.633 20.2437 128.633 21.2991 130.861 21.2991C133.089 21.2991 133.089 20.2437 135.317 20.2437" stroke="#C4B9DB" stroke-width="1.66154" stroke-miterlimit="10" stroke-linecap="round"/>
<path d="M60.962 160.688C65.1684 160.688 68.5784 157.626 68.5784 153.849C68.5784 150.072 65.1684 147.01 60.962 147.01C56.7555 147.01 53.3455 150.072 53.3455 153.849C53.3455 157.626 56.7555 160.688 60.962 160.688Z" fill="#CABBE9"/>
<path d="M66.4887 139.356C68.6698 139.356 70.438 137.768 70.438 135.81C70.438 133.851 68.6698 132.263 66.4887 132.263C64.3076 132.263 62.5394 133.851 62.5394 135.81C62.5394 137.768 64.3076 139.356 66.4887 139.356Z" fill="#CABBE9"/>
<path d="M82.1295 159.675C85.2454 159.675 87.7714 157.407 87.7714 154.609C87.7714 151.811 85.2454 149.543 82.1295 149.543C79.0136 149.543 76.4877 151.811 76.4877 154.609C76.4877 157.407 79.0136 159.675 82.1295 159.675Z" fill="#CABBE9"/>
<path d="M53.4771 67.7885C58.4821 67.7885 62.5394 64.1454 62.5394 59.6514C62.5394 55.1575 58.4821 51.5144 53.4771 51.5144C48.4722 51.5144 44.4149 55.1575 44.4149 59.6514C44.4149 64.1454 48.4722 67.7885 53.4771 67.7885Z" fill="#CABBE9"/>
<path d="M36.1608 58.0942C38.7677 58.0942 40.8811 56.1966 40.8811 53.8558C40.8811 51.515 38.7677 49.6174 36.1608 49.6174C33.5538 49.6174 31.4404 51.515 31.4404 53.8558C31.4404 56.1966 33.5538 58.0942 36.1608 58.0942Z" fill="#CABBE9"/>
<path d="M40.4968 41.893C42.0006 41.893 43.2196 40.7984 43.2196 39.4482C43.2196 38.098 42.0006 37.0034 40.4968 37.0034C38.9931 37.0034 37.774 38.098 37.774 39.4482C37.774 40.7984 38.9931 41.893 40.4968 41.893Z" fill="#CABBE9"/>
<path d="M55.5694 47.0391C59.1744 47.0391 62.0969 44.415 62.0969 41.178C62.0969 37.941 59.1744 35.3169 55.5694 35.3169C51.9643 35.3169 49.0419 37.941 49.0419 41.178C49.0419 44.415 51.9643 47.0391 55.5694 47.0391Z" fill="#CABBE9"/>
<path d="M210.99 28.3255C215.995 28.3255 220.052 24.6825 220.052 20.1885C220.052 15.6946 215.995 12.0515 210.99 12.0515C205.985 12.0515 201.928 15.6946 201.928 20.1885C201.928 24.6825 205.985 28.3255 210.99 28.3255Z" fill="#CABBE9"/>
<path d="M225.409 14.0483C228.016 14.0483 230.129 12.1507 230.129 9.80987C230.129 7.46905 228.016 5.57144 225.409 5.57144C222.802 5.57144 220.689 7.46905 220.689 9.80987C220.689 12.1507 222.802 14.0483 225.409 14.0483Z" fill="#CABBE9"/>
<path d="M243.44 36.7359C245.697 36.7359 247.526 35.0934 247.526 33.0674C247.526 31.0413 245.697 29.3989 243.44 29.3989C241.184 29.3989 239.355 31.0413 239.355 33.0674C239.355 35.0934 241.184 36.7359 243.44 36.7359Z" fill="#CABBE9"/>
<path d="M236.963 22.9832C238.467 22.9832 239.686 21.8886 239.686 20.5384C239.686 19.1881 238.467 18.0936 236.963 18.0936C235.459 18.0936 234.24 19.1881 234.24 20.5384C234.24 21.8886 235.459 22.9832 236.963 22.9832Z" fill="#CABBE9"/>
<path d="M227.582 37.1327C231.187 37.1327 234.109 34.5086 234.109 31.2716C234.109 28.0346 231.187 25.4106 227.582 25.4106C223.977 25.4106 221.054 28.0346 221.054 31.2716C221.054 34.5086 223.977 37.1327 227.582 37.1327Z" fill="#CABBE9"/>
</svg>
