<svg width="288" height="194" viewBox="0 0 288 194" fill="none" xmlns="http://www.w3.org/2000/svg">
<path d="M146.1 193.158C199.207 193.158 242.258 150.106 242.258 97C242.258 43.8936 199.207 0.842346 146.1 0.842346C92.9938 0.842346 49.9425 43.8936 49.9425 97C49.9425 150.106 92.9938 193.158 146.1 193.158Z" fill="#F5F5F5"/>
<path d="M287.393 76.8951V66.82C287.393 65.8687 287.206 64.9267 286.842 64.0478C286.478 63.169 285.944 62.3704 285.271 61.6977C284.599 61.025 283.8 60.4915 282.921 60.1274C282.042 59.7634 281.1 59.576 280.149 59.576H254.58C253.629 59.576 252.687 59.3886 251.808 59.0246C250.929 58.6605 250.131 58.1269 249.458 57.4543C248.785 56.7816 248.252 55.983 247.888 55.1042C247.524 54.2253 247.336 53.2833 247.336 52.332V42.2569C247.336 41.3056 247.524 40.3636 247.888 39.4847C248.252 38.6058 248.785 37.8073 249.458 37.1346C250.131 36.4619 250.929 35.9283 251.808 35.5643C252.687 35.2003 253.629 35.0129 254.58 35.0129H255.388C257.309 35.0129 259.151 34.2497 260.51 32.8912C261.868 31.5327 262.632 29.6901 262.632 27.7689V17.6938C262.632 15.7725 261.868 13.93 260.51 12.5715C259.151 11.213 257.309 10.4498 255.388 10.4498H49.4082C47.4869 10.4498 45.6444 11.213 44.2859 12.5715C42.9274 13.93 42.1642 15.7725 42.1642 17.6938V27.7689C42.1642 29.6901 42.9274 31.5327 44.2859 32.8912C45.6444 34.2497 47.4869 35.0129 49.4082 35.0129C51.3294 35.0129 53.1719 35.7761 54.5305 37.1346C55.889 38.4931 56.6522 40.3357 56.6522 42.2569V52.332C56.6522 54.2532 55.889 56.0958 54.5305 57.4543C53.1719 58.8128 51.3294 59.576 49.4082 59.576H21.395C19.4737 59.576 17.6312 60.3392 16.2727 61.6977C14.9142 63.0562 14.151 64.8988 14.151 66.82V76.8951C14.151 77.8464 14.3383 78.7884 14.7024 79.6673C15.0664 80.5462 15.6 81.3447 16.2727 82.0174C16.9453 82.6901 17.7439 83.2237 18.6228 83.5877C19.5017 83.9518 20.4437 84.1391 21.395 84.1391H32.3869C33.3382 84.1391 34.2802 84.3265 35.1591 84.6905C36.038 85.0546 36.8365 85.5882 37.5092 86.2608C38.1819 86.9335 38.7155 87.7321 39.0795 88.611C39.4436 89.4899 39.6309 90.4318 39.6309 91.3831V101.458C39.6309 103.38 38.8677 105.222 37.5092 106.581C36.1507 107.939 34.3082 108.702 32.3869 108.702H32.3603C30.4391 108.702 28.5966 109.466 27.2381 110.824C25.8796 112.183 25.1164 114.025 25.1164 115.946V126.021C25.1164 127.943 25.8796 129.785 27.2381 131.144C28.5966 132.502 30.4391 133.265 32.3604 133.265H33.9507C35.8719 133.265 37.7145 134.029 39.073 135.387C40.4315 136.746 41.1947 138.588 41.1947 140.509V150.584C41.1947 151.536 41.0073 152.478 40.6433 153.357C40.2792 154.236 39.7456 155.034 39.073 155.707C38.4003 156.379 37.6017 156.913 36.7228 157.277C35.844 157.641 34.902 157.829 33.9507 157.829H7.85094C5.92971 157.829 4.08717 158.592 2.72866 159.95C1.37014 161.309 0.606934 163.151 0.606934 165.073V175.148C0.606934 177.069 1.37014 178.911 2.72866 180.27C4.08717 181.628 5.92971 182.392 7.85094 182.392H259.277C261.198 182.392 263.04 181.628 264.399 180.27C265.757 178.911 266.521 177.069 266.521 175.148V165.073C266.521 163.151 265.757 161.309 264.399 159.95C263.04 158.592 261.198 157.829 259.277 157.829H252.996C252.044 157.829 251.102 157.641 250.224 157.277C249.345 156.913 248.546 156.379 247.873 155.707C247.201 155.034 246.667 154.236 246.303 153.357C245.939 152.478 245.752 151.536 245.752 150.584V140.509C245.752 138.588 246.515 136.746 247.873 135.387C249.232 134.029 251.074 133.265 252.996 133.265H267.805C269.727 133.265 271.569 132.502 272.928 131.144C274.286 129.785 275.049 127.943 275.049 126.021V115.946C275.049 114.025 274.286 112.183 272.928 110.824C271.569 109.465 269.727 108.702 267.805 108.702H263.313C261.392 108.702 259.549 107.939 258.191 106.581C256.832 105.222 256.069 103.38 256.069 101.458V91.3831C256.069 89.4619 256.832 87.6194 258.191 86.2608C259.549 84.9023 261.392 84.1391 263.313 84.1391H280.149C281.1 84.1391 282.042 83.9518 282.921 83.5877C283.8 83.2237 284.599 82.6901 285.271 82.0174C285.944 81.3447 286.478 80.5462 286.842 79.6673C287.206 78.7884 287.393 77.8464 287.393 76.8951Z" fill="#E2E2E2"/>
<path d="M58.0641 111.229C62.2874 111.229 65.711 107.806 65.711 103.582C65.711 99.3592 62.2874 95.9355 58.0641 95.9355C53.8408 95.9355 50.4171 99.3592 50.4171 103.582C50.4171 107.806 53.8408 111.229 58.0641 111.229Z" fill="#CABBE9"/>
<path d="M64.9745 122.768C67.1643 122.768 68.9395 120.993 68.9395 118.803C68.9395 116.613 67.1643 114.838 64.9745 114.838C62.7847 114.838 61.0095 116.613 61.0095 118.803C61.0095 120.993 62.7847 122.768 64.9745 122.768Z" fill="#CABBE9"/>
<path d="M54.2188 134.645C56.4086 134.645 58.1838 132.87 58.1838 130.68C58.1838 128.49 56.4086 126.715 54.2188 126.715C52.029 126.715 50.2538 128.49 50.2538 130.68C50.2538 132.87 52.029 134.645 54.2188 134.645Z" fill="#CABBE9"/>
<path d="M45.8762 121.453C49.0047 121.453 51.5409 118.917 51.5409 115.789C51.5409 112.66 49.0047 110.124 45.8762 110.124C42.7476 110.124 40.2114 112.66 40.2114 115.789C40.2114 118.917 42.7476 121.453 45.8762 121.453Z" fill="#CABBE9"/>
<path d="M202.968 57.9173C207.191 57.9173 210.615 54.4936 210.615 50.2703C210.615 46.047 207.191 42.6234 202.968 42.6234C198.745 42.6234 195.321 46.047 195.321 50.2703C195.321 54.4936 198.745 57.9173 202.968 57.9173Z" fill="#CABBE9"/>
<path d="M186.27 55.0019C188.459 55.0019 190.235 53.2267 190.235 51.0369C190.235 48.8471 188.459 47.0719 186.27 47.0719C184.08 47.0719 182.305 48.8471 182.305 51.0369C182.305 53.2267 184.08 55.0019 186.27 55.0019Z" fill="#CABBE9"/>
<path d="M179.234 40.6057C181.424 40.6057 183.199 38.8305 183.199 36.6407C183.199 34.4509 181.424 32.6758 179.234 32.6758C177.044 32.6758 175.269 34.4509 175.269 36.6407C175.269 38.8305 177.044 40.6057 179.234 40.6057Z" fill="#CABBE9"/>
<path d="M196.158 40.0868C199.287 40.0868 201.823 37.5506 201.823 34.422C201.823 31.2935 199.287 28.7573 196.158 28.7573C193.03 28.7573 190.494 31.2935 190.494 34.422C190.494 37.5506 193.03 40.0868 196.158 40.0868Z" fill="#CABBE9"/>
<path d="M192.778 124.911H80.1387C77.4105 124.911 76.2256 76.426 78.3786 74.7504L134.698 34.1039C135.201 33.7123 135.821 33.4997 136.458 33.4997C137.096 33.4997 137.715 33.7123 138.218 34.1039L194.538 74.7503C196.691 76.426 195.506 124.911 192.778 124.911Z" fill="#B8A3D3"/>
<path d="M77.2673 157.629V77.7413C77.2673 77.1442 77.4538 76.5621 77.8008 76.0761C78.1478 75.5902 78.6378 75.2247 79.2026 75.0309C79.7673 74.837 80.3785 74.8244 80.9508 74.9947C81.5231 75.1651 82.0279 75.51 82.3946 75.9812L131.229 115.925C131.62 116.428 131.833 117.048 131.833 117.685C131.833 118.323 131.62 118.942 131.229 119.445L82.3946 159.389C82.0279 159.86 81.5231 160.205 80.9508 160.376C80.3786 160.546 79.7674 160.533 79.2026 160.339C78.6379 160.146 78.1478 159.78 77.8008 159.294C77.4538 158.808 77.2673 158.226 77.2673 157.629ZM195.649 157.629V77.7413C195.649 77.1442 195.462 76.5621 195.116 76.0761C194.769 75.5902 194.278 75.2247 193.714 75.0309C193.149 74.837 192.538 74.8244 191.965 74.9947C191.393 75.1651 190.888 75.51 190.522 75.9812L141.687 115.925C141.296 116.428 141.083 117.048 141.083 117.685C141.083 118.323 141.296 118.942 141.687 119.445L190.522 159.389C190.888 159.86 191.393 160.205 191.965 160.376C192.538 160.546 193.149 160.533 193.714 160.339C194.278 160.146 194.769 159.78 195.115 159.294C195.462 158.808 195.649 158.226 195.649 157.629Z" fill="#2E1065"/>
<path d="M192.778 160.5H80.1387C79.5416 160.5 78.9594 160.314 78.4735 159.967C77.9875 159.62 77.6221 159.13 77.4282 158.565C77.2343 158 77.2217 157.389 77.3921 156.817C77.5625 156.245 77.9074 155.74 78.3786 155.373L134.698 114.727C135.201 114.335 135.821 114.122 136.458 114.122C137.096 114.122 137.715 114.335 138.218 114.727L194.538 155.373C195.009 155.74 195.354 156.245 195.524 156.817C195.695 157.389 195.682 158 195.488 158.565C195.294 159.13 194.929 159.62 194.443 159.967C193.957 160.314 193.375 160.5 192.778 160.5Z" fill="#7332F9"/>
<path d="M77.2671 86.735C88.1876 86.735 97.0405 77.8822 97.0405 66.9616C97.0405 56.0411 88.1876 47.1882 77.2671 47.1882C66.3465 47.1882 57.4937 56.0411 57.4937 66.9616C57.4937 77.8822 66.3465 86.735 77.2671 86.735Z" fill="#6E2BF9"/>
<path d="M78.2972 54.0011H76.2374V72.2913H78.2972V54.0011Z" fill="#C9CCDA"/>
<path d="M77.2673 79.9229C79.7523 79.9229 79.7564 76.0609 77.2673 76.0609C74.7823 76.0609 74.7782 79.9229 77.2673 79.9229Z" fill="#C9CCDA"/>
<path d="M231.016 70.6635H248.906" stroke="#C4B9DB" stroke-width="1.66154" stroke-miterlimit="10" stroke-linecap="round"/>
<path d="M231.016 75.8204H248.906" stroke="#C4B9DB" stroke-width="1.66154" stroke-miterlimit="10" stroke-linecap="round"/>
<path d="M231.016 80.9767H248.906" stroke="#C4B9DB" stroke-width="1.66154" stroke-miterlimit="10" stroke-linecap="round"/>
<path d="M45.6302 159.153H63.5211" stroke="#C4B9DB" stroke-width="1.66154" stroke-miterlimit="10" stroke-linecap="round"/>
<path d="M45.6302 164.309H63.5211" stroke="#C4B9DB" stroke-width="1.66154" stroke-miterlimit="10" stroke-linecap="round"/>
<path d="M45.6302 169.466H63.5211" stroke="#C4B9DB" stroke-width="1.66154" stroke-miterlimit="10" stroke-linecap="round"/>
<path d="M95.605 26.2251H113.496" stroke="#C4B9DB" stroke-width="1.66154" stroke-miterlimit="10" stroke-linecap="round"/>
<path d="M95.605 31.382H113.496" stroke="#C4B9DB" stroke-width="1.66154" stroke-miterlimit="10" stroke-linecap="round"/>
<path d="M95.605 36.5383H113.496" stroke="#C4B9DB" stroke-width="1.66154" stroke-miterlimit="10" stroke-linecap="round"/>
<path d="M254.139 152.405C258.362 152.405 261.786 148.981 261.786 144.758C261.786 140.534 258.362 137.111 254.139 137.111C249.916 137.111 246.492 140.534 246.492 144.758C246.492 148.981 249.916 152.405 254.139 152.405Z" fill="#CABBE9"/>
<path d="M233.959 154.242C236.149 154.242 237.924 152.466 237.924 150.277C237.924 148.087 236.149 146.312 233.959 146.312C231.769 146.312 229.994 148.087 229.994 150.277C229.994 152.466 231.769 154.242 233.959 154.242Z" fill="#CABBE9"/>
<path d="M244.027 131.711C247.156 131.711 249.692 129.174 249.692 126.046C249.692 122.917 247.156 120.381 244.027 120.381C240.899 120.381 238.363 122.917 238.363 126.046C238.363 129.174 240.899 131.711 244.027 131.711Z" fill="#CABBE9"/>
<path d="M227.609 113.318L212.268 125.889L181.952 150.73L173.523 167.931C173.422 168.138 173.254 168.305 173.046 168.404C172.839 168.503 172.604 168.53 172.379 168.479L172.33 168.465C172.117 168.406 171.928 168.279 171.794 168.103C171.659 167.927 171.584 167.712 171.582 167.491L172.113 151.187L172.303 145.349L226.447 111.643C226.67 111.514 226.932 111.474 227.182 111.53C227.433 111.586 227.653 111.735 227.8 111.946C227.946 112.157 228.007 112.415 227.972 112.669C227.937 112.923 227.807 113.155 227.609 113.318Z" fill="#7C7A7A"/>
<path d="M227.95 112.786L227.946 112.802C227.874 113.059 227.704 113.278 227.473 113.412L216.555 119.733L172.301 145.355L153.668 132.667C153.506 132.556 153.379 132.402 153.303 132.221C153.226 132.04 153.203 131.842 153.236 131.648C153.269 131.455 153.357 131.275 153.489 131.13C153.621 130.986 153.792 130.882 153.981 130.831L226.674 111.544L226.704 111.535L226.76 111.523L226.819 111.512L226.874 111.506L226.941 111.503L226.998 111.503L227.006 111.505L227.061 111.509L227.122 111.516C227.161 111.522 227.199 111.531 227.238 111.541C227.288 111.555 227.338 111.573 227.386 111.595C227.408 111.604 227.429 111.615 227.45 111.627C227.473 111.639 227.496 111.652 227.517 111.666L227.585 111.713C227.599 111.722 227.612 111.733 227.624 111.745C227.63 111.748 227.635 111.752 227.639 111.758L227.677 111.792L227.687 111.795L227.72 111.828C227.747 111.859 227.773 111.89 227.797 111.923C227.809 111.938 227.819 111.954 227.829 111.971C227.862 112.023 227.89 112.078 227.912 112.135C227.923 112.162 227.933 112.189 227.941 112.217C227.949 112.241 227.955 112.265 227.961 112.29C227.967 112.314 227.974 112.352 227.98 112.385C227.984 112.413 227.986 112.441 227.987 112.469C227.99 112.504 227.99 112.539 227.988 112.573C227.985 112.594 227.983 112.616 227.983 112.637C227.975 112.687 227.965 112.737 227.95 112.786Z" fill="#C9CCDA"/>
<mask id="mask0_38_59" style="mask-type:luminance" maskUnits="userSpaceOnUse" x="144" y="93" width="86" height="87">
<path d="M163.7 93.697L144.989 160.848L210.563 179.12L229.274 111.969L163.7 93.697Z" fill="white"/>
</mask>
<g mask="url(#mask0_38_59)">
<path d="M212.732 171.148C212.698 171.28 212.638 171.403 212.555 171.511C212.473 171.619 212.37 171.709 212.252 171.777C212.134 171.845 212.004 171.888 211.87 171.905C211.735 171.922 211.598 171.911 211.467 171.875C211.361 171.845 211.259 171.798 211.167 171.736L179.487 150.177L216.555 119.733L226.312 111.737C226.423 111.646 226.551 111.578 226.688 111.539C226.71 111.534 226.731 111.529 226.753 111.525L226.813 111.515L226.867 111.509L226.935 111.505L226.991 111.505L226.999 111.507L227.055 111.512L227.115 111.518C227.154 111.525 227.193 111.533 227.231 111.544C227.282 111.558 227.331 111.576 227.379 111.597C227.401 111.607 227.423 111.618 227.444 111.63C227.467 111.641 227.489 111.654 227.511 111.669L227.579 111.716C227.593 111.725 227.606 111.736 227.618 111.748C227.624 111.751 227.629 111.755 227.633 111.761L227.671 111.795L227.68 111.798L227.713 111.831C227.741 111.861 227.767 111.893 227.79 111.926C227.802 111.941 227.813 111.957 227.823 111.973C227.856 112.026 227.883 112.081 227.906 112.138C227.916 112.165 227.927 112.192 227.935 112.22C227.943 112.243 227.949 112.267 227.955 112.292C227.961 112.316 227.968 112.355 227.973 112.388C227.977 112.416 227.98 112.444 227.981 112.472C227.983 112.506 227.984 112.541 227.982 112.575C227.979 112.596 227.977 112.618 227.977 112.639C227.971 112.689 227.962 112.739 227.95 112.788L227.946 112.802L212.732 171.148Z" fill="#C9CCDA"/>
<path d="M188.914 156.592L173.217 168.302C173.092 168.395 172.947 168.459 172.794 168.487C172.64 168.516 172.482 168.509 172.331 168.467C172.193 168.429 172.064 168.361 171.954 168.268C171.777 168.122 171.654 167.921 171.606 167.696C171.557 167.472 171.586 167.237 171.688 167.031L179.488 150.178L188.914 156.592Z" fill="#6244A0"/>
</g>
<path d="M179.487 150.177L188.914 156.592L186.629 158.297L178.627 152.035L179.487 150.177Z" fill="#6244A0"/>
</svg>
