<svg xmlns="http://www.w3.org/2000/svg" viewBox="0 0 250.4 201.1"><defs><style>.cls-1{fill:#26103d;}</style></defs><g id="Layer_2" data-name="Layer 2"><g id="graphics"><path class="cls-1" d="M144.49,19.29A19.29,19.29,0,1,1,125.2,0,19.29,19.29,0,0,1,144.49,19.29Z"/><path class="cls-1" d="M248,69.81c-5.35-.44-18.75-1.69-38.21,3.48-2.47-20.07-8-35.67-14.84-52.31A191.49,191.49,0,0,0,125.2,64.34,191.62,191.62,0,0,0,55.41,21C48.57,37.62,43,53.22,40.58,73.29c-20.9-5.47-32.86-3.92-38.22-3.48C-3.39,100.09,1,134.48,19.47,159.65c26.13,35.62,67.59,38.34,89,41.45-9-8.7-29.32-31.56-33.64-37.19l-.08-.09h0c-19.18-25-25.23-51.27-23.83-81.87a119.72,119.72,0,0,1,2.35-17.29h0a176.39,176.39,0,0,1,8.42-29.36c10.3,4.41,34.7,16.27,56,37.32A141.36,141.36,0,0,0,98,101.32,124,124,0,0,0,59.52,79.59a90.47,90.47,0,0,0-.42,12C93.35,106.41,116.25,132.12,125,147c7.33-9.58,12.19-17.1,23.24-27.35a116.31,116.31,0,0,1,4.83,17.09c-3.42,5.48-14.6,22.55-27.89,33.57-13.29-11-24.48-28.09-27.9-33.57.61-3,1.14-5.71,2-8.67A112.38,112.38,0,0,0,90,120a132.5,132.5,0,0,0-4.52,18.77c13.34,24.38,28.1,36.41,39.5,45.62,12.07-9.58,28.79-23.65,39.86-45.62C159.79,109.89,142.79,85.05,138,79c-2.73,2.65-5.49,5.48-7.83,8.18a126,126,0,0,1,13.45,21.56,145.22,145.22,0,0,0-18.42,19.44,145.85,145.85,0,0,0-18.42-19.44c8.85-18.15,24.71-36.14,32.23-42h0a190.36,190.36,0,0,1,49.67-31.43,168.18,168.18,0,0,1,10.24,41.27,161.72,161.72,0,0,0-40.45,20.54,84.49,84.49,0,0,1,5,10.19c11-7.82,27.19-16.56,41.62-21,13.18-4,27.14-5.9,33.35-5.9,1.34,11.91,3,45.91-16.53,72.57-11.17,15.22-27.56,25.75-48.89,31.42,15.78-16.24,37.45-46.68,37.89-91.66-3.77,1.07-7.74,2.31-11.27,3.65-1,29.34-11.47,51-24,67.39h0c-.85,1-20.09,24.08-33.71,37.28,21.39-3.11,62.85-5.83,89-41.45C249.39,134.48,253.79,100.09,248,69.81ZM77.38,184.44c-21.33-5.67-37.72-16.2-48.89-31.42C8.93,126.36,10.62,92.36,12,80.45h.24a104.7,104.7,0,0,1,27.42,4.18C37.32,134.1,60.66,167.24,77.38,184.44Z"/></g></g></svg>