<svg width="21" height="23" viewBox="0 0 21 23" fill="none" xmlns="http://www.w3.org/2000/svg">
<path d="M0 21.1007V8.35079C0 7.97527 0.0825172 7.61981 0.247552 7.28439C0.412586 6.94897 0.639989 6.67271 0.929759 6.45562L8.68015 0.473794C9.08602 0.157932 9.54946 0 10.0705 0C10.5915 0 11.0578 0.157932 11.4694 0.473794L19.2198 6.45415C19.5105 6.67124 19.7379 6.94799 19.902 7.28439C20.0671 7.61981 20.1496 7.97527 20.1496 8.35079V21.1007C20.1496 21.4938 20.0061 21.8365 19.7192 22.1289C19.4323 22.4213 19.096 22.5675 18.7103 22.5675H13.8399C13.5098 22.5675 13.2335 22.4541 13.0109 22.2272C12.7883 21.9994 12.677 21.7177 12.677 21.3823V14.3869C12.677 14.0515 12.5657 13.7703 12.3431 13.5434C12.1195 13.3156 11.8431 13.2017 11.514 13.2017H8.63553C8.30642 13.2017 8.03056 13.3156 7.80796 13.5434C7.58439 13.7703 7.47261 14.0515 7.47261 14.3869V21.3838C7.47261 21.7192 7.36131 22.0003 7.1387 22.2272C6.9161 22.4541 6.64024 22.5675 6.31113 22.5675H1.43925C1.05353 22.5675 0.717228 22.4213 0.430337 22.1289C0.143445 21.8365 0 21.4938 0 21.1007Z" fill="#6A4490"/>
</svg>
