<svg width="19" height="22" viewBox="0 0 19 22" fill="none" xmlns="http://www.w3.org/2000/svg">
<g id="Group">
<path id="Vector" d="M9.74259 20.8507L9.73159 20.8527L9.66059 20.8877L9.64059 20.8917L9.62659 20.8877L9.55559 20.8527C9.54492 20.8494 9.53692 20.851 9.53159 20.8577L9.52759 20.8677L9.51059 21.2957L9.51559 21.3157L9.52559 21.3287L9.62959 21.4027L9.64459 21.4067L9.65659 21.4027L9.76059 21.3287L9.77259 21.3127L9.77659 21.2957L9.75959 20.8687C9.75692 20.858 9.75125 20.852 9.74259 20.8507ZM10.0076 20.7377L9.99459 20.7397L9.80959 20.8327L9.79959 20.8427L9.79659 20.8537L9.81459 21.2837L9.81959 21.2957L9.82759 21.3027L10.0286 21.3957C10.0413 21.399 10.0509 21.3964 10.0576 21.3877L10.0616 21.3737L10.0276 20.7597C10.0243 20.7477 10.0176 20.7404 10.0076 20.7377ZM9.29259 20.7397C9.28818 20.737 9.28291 20.7362 9.27788 20.7373C9.27285 20.7384 9.26845 20.7414 9.26559 20.7457L9.25959 20.7597L9.22559 21.3737C9.22625 21.3857 9.23192 21.3937 9.24259 21.3977L9.25759 21.3957L9.45859 21.3027L9.46859 21.2947L9.47259 21.2837L9.48959 20.8537L9.48659 20.8417L9.47659 20.8317L9.29259 20.7397Z" fill="#26103D"/>
<path id="Vector_2" d="M13.1494 0.592773C14.4755 0.592773 15.7473 1.11956 16.6849 2.05724C17.6226 2.99492 18.1494 4.26669 18.1494 5.59277V13.5928C18.1494 14.9189 17.6226 16.1906 16.6849 17.1283C15.7473 18.066 14.4755 18.5928 13.1494 18.5928H5.14941C3.82333 18.5928 2.55156 18.066 1.61388 17.1283C0.676198 16.1906 0.149414 14.9189 0.149414 13.5928V5.59277C0.149414 4.26669 0.676198 2.99492 1.61388 2.05724C2.55156 1.11956 3.82333 0.592773 5.14941 0.592773H13.1494ZM9.14941 5.59277C8.08855 5.59277 7.07113 6.0142 6.32099 6.76435C5.57084 7.51449 5.14941 8.53191 5.14941 9.59277C5.14941 10.6536 5.57084 11.6711 6.32099 12.4212C7.07113 13.1713 8.08855 13.5928 9.14941 13.5928C10.2103 13.5928 11.2277 13.1713 11.9778 12.4212C12.728 11.6711 13.1494 10.6536 13.1494 9.59277C13.1494 8.53191 12.728 7.51449 11.9778 6.76435C11.2277 6.0142 10.2103 5.59277 9.14941 5.59277ZM9.14941 7.59277C9.67985 7.59277 10.1886 7.80349 10.5636 8.17856C10.9387 8.55363 11.1494 9.06234 11.1494 9.59277C11.1494 10.1232 10.9387 10.6319 10.5636 11.007C10.1886 11.3821 9.67985 11.5928 9.14941 11.5928C8.61898 11.5928 8.11027 11.3821 7.7352 11.007C7.36013 10.6319 7.14941 10.1232 7.14941 9.59277C7.14941 9.06234 7.36013 8.55363 7.7352 8.17856C8.11027 7.80349 8.61898 7.59277 9.14941 7.59277ZM13.6494 4.09277C13.3842 4.09277 13.1298 4.19813 12.9423 4.38567C12.7548 4.5732 12.6494 4.82756 12.6494 5.09277C12.6494 5.35799 12.7548 5.61234 12.9423 5.79988C13.1298 5.98742 13.3842 6.09277 13.6494 6.09277C13.9146 6.09277 14.169 5.98742 14.3565 5.79988C14.5441 5.61234 14.6494 5.35799 14.6494 5.09277C14.6494 4.82756 14.5441 4.5732 14.3565 4.38567C14.169 4.19813 13.9146 4.09277 13.6494 4.09277Z" fill="#26103D"/>
</g>
</svg>
