<svg xmlns="http://www.w3.org/2000/svg" viewBox="0 0 460.49 389.02"><defs><style>.cls-1,.cls-2{fill:#fff;}.cls-2{font-size:100.08px;font-family:Calibri;}</style></defs><g id="Layer_2" data-name="Layer 2"><g id="graphics"><path class="cls-1" d="M236.72,196.08a19.29,19.29,0,1,1-19.28-19.28A19.29,19.29,0,0,1,236.72,196.08Z"/><path class="cls-1" d="M340.27,246.61c-5.35-.44-18.76-1.69-38.22,3.48-2.46-20.08-8-35.67-14.83-52.31a191.6,191.6,0,0,0-69.78,43.35,191.73,191.73,0,0,0-69.79-43.35c-6.85,16.64-12.37,32.23-14.83,52.31-20.9-5.48-32.87-3.92-38.22-3.48-5.75,30.27-1.36,64.67,17.1,89.84,26.14,35.62,67.6,38.34,89,41.45-9-8.7-29.32-31.56-33.64-37.2l-.08-.09h0c-19.19-25.05-25.23-51.27-23.83-81.87a119.76,119.76,0,0,1,2.35-17.28h0a176.24,176.24,0,0,1,8.41-29.35c10.3,4.41,34.71,16.27,56,37.31a141.24,141.24,0,0,0-19.7,28.7,124.11,124.11,0,0,0-38.44-21.74,90.53,90.53,0,0,0-.42,12c34.24,14.84,57.14,40.55,65.92,55.39,7.33-9.59,12.18-17.1,23.24-27.35a117.43,117.43,0,0,1,4.83,17.08c-3.42,5.49-14.61,22.56-27.89,33.57C204.15,336,193,319,189.54,313.48c.61-3,1.14-5.71,2-8.66a110.74,110.74,0,0,0-9.25-8,131.78,131.78,0,0,0-4.51,18.77c13.34,24.37,28.1,36.4,39.5,45.62,12.06-9.59,28.79-23.66,39.85-45.62C252,286.69,235,261.84,230.24,255.76c-2.73,2.65-5.49,5.48-7.83,8.18a125.8,125.8,0,0,1,13.44,21.57,145.7,145.7,0,0,0-18.41,19.43A145.78,145.78,0,0,0,199,285.51c8.85-18.15,24.71-36.14,32.23-42h0a190.54,190.54,0,0,1,49.68-31.43,167.7,167.7,0,0,1,10.23,41.27,161.46,161.46,0,0,0-40.44,20.53,87.55,87.55,0,0,1,5,10.19c11-7.82,27.19-16.56,41.61-21,13.19-4,27.15-5.91,33.35-5.91,1.34,11.91,3,45.92-16.53,72.58C303,345,286.58,355.56,265.25,361.24c15.79-16.24,37.46-46.68,37.9-91.66-3.77,1.07-7.74,2.31-11.27,3.64-1.05,29.35-11.48,51-24,67.39h0c-.85,1-20.09,24.09-33.72,37.29,21.4-3.11,62.86-5.83,89-41.45C341.63,311.28,346,276.88,340.27,246.61ZM169.62,361.24c-21.33-5.68-37.72-16.2-48.89-31.42-19.56-26.66-17.87-60.67-16.53-72.58h.24a104.8,104.8,0,0,1,27.42,4.19C129.56,310.9,152.89,344,169.62,361.24Z"/><text class="cls-2" transform="translate(82.61 247.32) rotate(-70.06) scale(0.95 1)">R</text><text class="cls-2" transform="matrix(0.74, -0.59, 0.62, 0.78, 103.63, 191.5)">O</text><text class="cls-2" transform="matrix(0.93, -0.17, 0.18, 0.98, 160.9, 151.23)">Z</text><text class="cls-2" transform="matrix(0.92, 0.25, -0.26, 0.97, 214.15, 142.35)">A</text><text class="cls-2" transform="matrix(0.75, 0.58, -0.61, 0.79, 269.82, 158.76)">T</text><text class="cls-2" transform="translate(312.48 191.33) rotate(64.74) scale(0.95 1)">O</text><text/></g></g></svg>