<svg width="40" height="40" viewBox="0 0 40 40" fill="none" xmlns="http://www.w3.org/2000/svg">
<g id="ic:baseline-phone">
<path id="Vector" d="M10.9818 17.9176C13.3306 22.5336 17.1148 26.3015 21.7309 28.6666L25.3193 25.0782C25.7597 24.6378 26.4122 24.491 26.983 24.6867C28.8099 25.2902 30.7836 25.6165 32.8061 25.6165C33.7033 25.6165 34.4373 26.3505 34.4373 27.2476V32.9402C34.4373 33.8373 33.7033 34.5713 32.8061 34.5713C17.4899 34.5713 5.07715 22.1585 5.07715 6.8423C5.07715 5.94518 5.81115 5.21118 6.70827 5.21118H12.4172C13.3143 5.21118 14.0483 5.94518 14.0483 6.8423C14.0483 8.88119 14.3745 10.8385 14.978 12.6654C15.1575 13.2363 15.027 13.8724 14.5702 14.3291L10.9818 17.9176Z" fill="white"/>
</g>
</svg>
