<svg width="31" height="32" viewBox="0 0 31 32" fill="none" xmlns="http://www.w3.org/2000/svg">
<path id="Vector" d="M11.4651 23.8419C8.26079 23.8419 5.54913 22.7319 3.33019 20.5117C1.11124 18.2916 0.00117685 15.58 9.33264e-07 12.3768C-0.00117498 9.17358 1.10889 6.46193 3.33019 4.24181C5.55148 2.02168 8.26314 0.911621 11.4651 0.911621C14.6672 0.911621 17.3794 2.02168 19.6019 4.24181C21.8244 6.46193 22.9338 9.17358 22.9303 12.3768C22.9303 13.6703 22.7245 14.8903 22.3129 16.0368C21.9014 17.1833 21.3428 18.1975 20.6373 19.0795L30.5149 28.9571C30.8383 29.2805 31 29.6921 31 30.1918C31 30.6916 30.8383 31.1032 30.5149 31.4266C30.1916 31.7499 29.78 31.9116 29.2802 31.9116C28.7805 31.9116 28.3689 31.7499 28.0455 31.4266L18.1679 21.5489C17.2859 22.2544 16.2717 22.813 15.1252 23.2246C13.9787 23.6361 12.7587 23.8419 11.4651 23.8419ZM11.4651 20.3142C13.67 20.3142 15.5444 19.5428 17.0884 18C18.6323 16.4572 19.4037 14.5828 19.4026 12.3768C19.4014 10.1708 18.63 8.29694 17.0884 6.75532C15.5467 5.2137 13.6723 4.44171 11.4651 4.43936C9.25796 4.43701 7.38414 5.20899 5.8437 6.75532C4.30325 8.30164 3.53127 10.1755 3.52774 12.3768C3.52421 14.5781 4.2962 16.4525 5.8437 18C7.3912 19.5475 9.26502 20.3189 11.4651 20.3142Z" fill="white"/>
</svg>
