<svg width="22" height="18" viewBox="0 0 22 18" fill="none" xmlns="http://www.w3.org/2000/svg">
<path id="Vector" d="M21.0694 2.5C20.2994 2.85 19.4694 3.08 18.6094 3.19C19.4894 2.66 20.1694 1.82 20.4894 0.81C19.6594 1.31 18.7394 1.66 17.7694 1.86C16.9794 1 15.8694 0.5 14.6094 0.5C12.2594 0.5 10.3394 2.42 10.3394 4.79C10.3394 5.13 10.3794 5.46 10.4494 5.77C6.88941 5.59 3.71941 3.88 1.60941 1.29C1.23941 1.92 1.02941 2.66 1.02941 3.44C1.02941 4.93 1.77941 6.25 2.93941 7C2.22941 7 1.56941 6.8 0.989414 6.5V6.53C0.989414 8.61 2.46941 10.35 4.42941 10.74C3.80025 10.9129 3.13945 10.9369 2.49941 10.81C2.77102 11.6625 3.30295 12.4084 4.02043 12.9429C4.73791 13.4775 5.60486 13.7737 6.49941 13.79C4.98308 14.9905 3.10342 15.6394 1.16941 15.63C0.829414 15.63 0.489414 15.61 0.149414 15.57C2.04941 16.79 4.30941 17.5 6.72941 17.5C14.6094 17.5 18.9394 10.96 18.9394 5.29C18.9394 5.1 18.9394 4.92 18.9294 4.73C19.7694 4.13 20.4894 3.37 21.0694 2.5Z" fill="#26103D"/>
</svg>
