<svg width="31" height="32" viewBox="0 0 31 32" fill="#3F1A66" xmlns="http://www.w3.org/2000/svg">
<path id="Vector" d="M15.5 31.9116L13.2525 29.7154C10.6433 27.1532 8.48625 24.943 6.78125 23.0846C5.07625 21.2263 3.72 19.5578 2.7125 18.079C1.705 16.6003 1.0013 15.242 0.6014 14.0043C0.2015 12.7665 0.00103333 11.4995 0 10.2032C0 7.55649 0.81375 5.34623 2.44125 3.57238C4.06875 1.79854 6.09667 0.911621 8.525 0.911621C9.86833 0.911621 11.1471 1.22134 12.3612 1.84078C13.5754 2.46021 14.6217 3.33306 15.5 4.4593C16.3783 3.33306 17.4246 2.46021 18.6387 1.84078C19.8529 1.22134 21.1317 0.911621 22.475 0.911621C24.9033 0.911621 26.9312 1.79854 28.5587 3.57238C30.1862 5.34623 31 7.55649 31 10.2032C31 11.4984 30.8001 12.7654 30.4002 14.0043C30.0002 15.2431 29.296 16.6014 28.2875 18.079C27.279 19.5567 25.9227 21.2252 24.2188 23.0846C22.5148 24.9441 20.3577 27.1543 17.7475 29.7154L15.5 31.9116ZM15.5 27.3503C17.98 24.9289 20.0208 22.8526 21.6225 21.1216C23.2242 19.3905 24.49 17.8842 25.42 16.6025C26.35 15.3208 26.9958 14.18 27.3575 13.1798C27.7192 12.1797 27.9 11.1875 27.9 10.2032C27.9 8.5138 27.3833 7.10599 26.35 5.97974C25.3167 4.85349 24.025 4.29037 22.475 4.29037C21.2608 4.29037 20.1371 4.66316 19.1037 5.40873C18.0704 6.15431 17.36 7.10486 16.9725 8.26039H14.0275C13.64 7.10599 12.9296 6.156 11.8962 5.41042C10.8629 4.66485 9.73917 4.29149 8.525 4.29037C6.975 4.29037 5.68333 4.85349 4.65 5.97974C3.61667 7.10599 3.1 8.5138 3.1 10.2032C3.1 11.1886 3.28083 12.1814 3.6425 13.1815C4.00417 14.1816 4.65 15.322 5.58 16.6025C6.51 17.8831 7.77583 19.3894 9.3775 21.1216C10.9792 22.8538 13.02 24.93 15.5 27.3503Z" />
</svg>
