<svg width="31" height="32" viewBox="0 0 31 32" fill="none" xmlns="http://www.w3.org/2000/svg">
<path id="Vector" d="M15.5 16.4116C13.3687 16.4116 11.5443 15.6528 10.0266 14.1351C8.50885 12.6173 7.75 10.7929 7.75 8.66162C7.75 6.53037 8.50885 4.70589 10.0266 3.18818C11.5443 1.67048 13.3687 0.911621 15.5 0.911621C17.6313 0.911621 19.4557 1.67048 20.9734 3.18818C22.4911 4.70589 23.25 6.53037 23.25 8.66162C23.25 10.7929 22.4911 12.6173 20.9734 14.1351C19.4557 15.6528 17.6313 16.4116 15.5 16.4116ZM0 31.9116V26.4866C0 25.3887 0.282875 24.3799 0.848625 23.4602C1.41438 22.5406 2.16483 21.8379 3.1 21.3522C5.10208 20.3512 7.13646 19.6007 9.20312 19.1009C11.2698 18.601 13.3687 18.3504 15.5 18.3491C17.6313 18.3478 19.7302 18.5984 21.7969 19.1009C23.8635 19.6033 25.8979 20.3538 27.9 21.3522C28.8365 21.8366 29.5876 22.5393 30.1533 23.4602C30.7191 24.3812 31.0013 25.39 31 26.4866V31.9116H0ZM3.875 28.0366H27.125V26.4866C27.125 26.1314 27.0365 25.8085 26.8596 25.5179C26.6826 25.2272 26.4482 25.0012 26.1562 24.8397C24.4125 23.9679 22.6526 23.3143 20.8766 22.879C19.1005 22.4437 17.3083 22.2254 15.5 22.2241C13.6917 22.2228 11.8995 22.4411 10.1234 22.879C8.3474 23.3169 6.5875 23.9705 4.84375 24.8397C4.55312 25.0012 4.31869 25.2272 4.14044 25.5179C3.96219 25.8085 3.87371 26.1314 3.875 26.4866V28.0366ZM15.5 12.5366C16.5656 12.5366 17.4782 12.1575 18.2377 11.3993C18.9972 10.6411 19.3763 9.72854 19.375 8.66162C19.3737 7.5947 18.9946 6.68279 18.2377 5.92587C17.4808 5.16895 16.5682 4.7892 15.5 4.78662C14.4318 4.78404 13.5199 5.16379 12.7643 5.92587C12.0086 6.68795 11.6289 7.59987 11.625 8.66162C11.6211 9.72337 12.0009 10.6359 12.7643 11.3993C13.5276 12.1627 14.4395 12.5418 15.5 12.5366Z" fill="white"/>
</svg>
