<svg width="31" height="32" viewBox="0 0 31 32" fill="#3F1A66" xmlns="http://www.w3.org/2000/svg">
<path id="Vector" d="M24.8 25.7116C25.6222 25.7116 26.4107 26.0382 26.992 26.6196C27.5734 27.201 27.9 27.9894 27.9 28.8116C27.9 29.6338 27.5734 30.4223 26.992 31.0037C26.4107 31.585 25.6222 31.9116 24.8 31.9116C23.9778 31.9116 23.1893 31.585 22.608 31.0037C22.0266 30.4223 21.7 29.6338 21.7 28.8116C21.7 27.0911 23.0795 25.7116 24.8 25.7116ZM0 0.911621H5.0685L6.5255 4.01162H29.45C29.8611 4.01162 30.2553 4.17492 30.546 4.46561C30.8367 4.75629 31 5.15054 31 5.56162C31 5.82512 30.9225 6.08862 30.814 6.33662L25.265 16.3651C24.738 17.3106 23.715 17.9616 22.5525 17.9616H11.005L9.61 20.4881L9.5635 20.6741C9.5635 20.7769 9.60433 20.8755 9.677 20.9481C9.74967 21.0208 9.84823 21.0616 9.951 21.0616H27.9V24.1616H9.3C8.47783 24.1616 7.68933 23.835 7.10797 23.2537C6.52661 22.6723 6.2 21.8838 6.2 21.0616C6.2 20.5191 6.3395 20.0076 6.572 19.5736L8.68 15.7761L3.1 4.01162H0V0.911621ZM9.3 25.7116C10.1222 25.7116 10.9107 26.0382 11.492 26.6196C12.0734 27.201 12.4 27.9894 12.4 28.8116C12.4 29.6338 12.0734 30.4223 11.492 31.0037C10.9107 31.585 10.1222 31.9116 9.3 31.9116C8.47783 31.9116 7.68933 31.585 7.10797 31.0037C6.52661 30.4223 6.2 29.6338 6.2 28.8116C6.2 27.0911 7.5795 25.7116 9.3 25.7116ZM23.25 14.8616L27.559 7.11162H7.967L11.625 14.8616H23.25Z" />
</svg>
